<svg width="29" height="29" viewBox="0 0 29 29" fill="none" xmlns="http://www.w3.org/2000/svg">
<path d="M0.429688 14.6211C0.429688 17.39 1.25077 20.0968 2.78911 22.3991C4.32745 24.7014 6.51395 26.4958 9.07212 27.5554C11.6303 28.615 14.4452 28.8923 17.161 28.3521C19.8767 27.8119 22.3712 26.4785 24.3292 24.5206C26.2871 22.5627 27.6205 20.0681 28.1607 17.3524C28.7009 14.6366 28.4236 11.8217 27.364 9.26353C26.3044 6.70536 24.51 4.51886 22.2077 2.98052C19.9054 1.44218 17.1986 0.621094 14.4297 0.621094C10.7167 0.621094 7.1557 2.09609 4.53019 4.7216C1.90468 7.34711 0.429688 10.9081 0.429688 14.6211ZM6.42969 13.6211H18.5797L12.9997 8.01409L14.4297 6.62109L22.4297 14.6211L14.4297 22.6211L12.9997 21.1941L18.5797 15.6211H6.42969V13.6211Z" fill="#7CBC2E"/>
</svg>
